<svg width="46" height="47" viewBox="0 0 46 47" fill="none" xmlns="http://www.w3.org/2000/svg">
<path fill-rule="evenodd" clip-rule="evenodd" d="M32.358 9.80449C31.9223 6.86292 28.7483 5.1098 26.0215 6.30959C25.9926 6.32227 25.9634 6.33401 25.9338 6.34478C24.0352 7.03517 22.1061 7.03517 20.2075 6.34478L20.1827 6.33551C17.2542 5.20914 14.21 7.03068 13.7821 9.81241C13.7753 9.85614 13.7666 9.89954 13.7559 9.94247L13.6357 10.4231C13.4186 12.2423 12.3517 13.977 10.9429 15.042L10.2405 15.6038C8.08186 17.3307 8.08283 20.5612 10.1119 22.2834L10.7991 22.8332C12.2079 23.8982 13.2749 25.6328 13.4919 27.452L13.6121 27.9327C13.6235 27.9782 13.6326 28.0242 13.6395 28.0707C14.0753 31.0122 17.2493 32.7654 19.9761 31.5656C20.0049 31.5529 20.0342 31.5411 20.0638 31.5304C21.9624 30.84 23.8914 30.84 25.79 31.5304L25.8148 31.5396C28.7434 32.666 31.7875 30.8445 32.2155 28.0627C32.2222 28.019 32.231 27.9756 32.2417 27.9327L32.3619 27.452C32.5799 25.6246 33.6555 23.8825 35.0738 22.8188C35.095 22.8029 35.1168 22.7875 35.1389 22.7727L35.9612 22.2246C38.1912 20.4941 38.18 17.3409 35.9276 15.6248L35.9008 15.6038L35.1984 15.042C33.7896 13.977 32.7227 12.2423 32.5056 10.4231L32.3854 9.94247C32.3741 9.89695 32.3649 9.8509 32.358 9.80449ZM35.1908 9.30992C34.4381 4.55059 29.3384 1.74548 24.9114 3.65723C23.6651 4.10109 22.4479 4.09766 21.2012 3.64693C16.6808 1.91759 11.711 4.65941 10.9514 9.30615L10.8229 9.82018C10.806 9.88776 10.7941 9.95647 10.7872 10.0258C10.6864 11.0331 10.0518 12.1166 9.19877 12.7563C9.1868 12.7653 9.17496 12.7745 9.16327 12.7838L8.44452 13.3588C4.85772 16.2283 4.8522 21.6129 8.27283 24.4934C8.28205 24.5011 8.29136 24.5088 8.30077 24.5163L9.01952 25.0913C9.03121 25.1007 9.04305 25.1098 9.05502 25.1188C9.908 25.7586 10.5427 26.8421 10.6434 27.8494C10.6503 27.9187 10.6623 27.9874 10.6792 28.055L10.8068 28.5652C11.5594 33.3246 16.6591 36.1297 21.0862 34.2179C22.3324 33.7741 23.5496 33.7775 24.7962 34.2282C29.3167 35.9576 34.2865 33.2158 35.0461 28.569L35.1746 28.055C35.1915 27.9874 35.2035 27.9187 35.2104 27.8494C35.31 26.8536 35.9314 25.7832 36.7697 25.1409L37.5962 24.5899C37.6213 24.5731 37.6459 24.5556 37.67 24.5373C41.439 21.6656 41.4438 16.2269 37.6842 13.3488L36.978 12.7838C36.9663 12.7745 36.9545 12.7653 36.9425 12.7563C36.0895 12.1166 35.4549 11.0331 35.3541 10.0258C35.3472 9.95647 35.3352 9.88776 35.3184 9.82018L35.1908 9.30992Z" fill="#020A13"/>
<path fill-rule="evenodd" clip-rule="evenodd" d="M14.3738 30.4376C15.1677 30.4376 15.8113 31.0812 15.8113 31.8751V39.6116L22.3559 36.3393C22.7606 36.137 23.2369 36.137 23.6416 36.3393L30.1863 39.6116V31.8751C30.1863 31.0812 30.8299 30.4376 31.6238 30.4376C32.4177 30.4376 33.0613 31.0812 33.0613 31.8751V41.9376C33.0613 42.4358 32.8033 42.8985 32.3795 43.1604C31.9557 43.4223 31.4265 43.4461 30.9809 43.2233L22.9988 39.2322L15.0166 43.2233C14.571 43.4461 14.0418 43.4223 13.618 43.1604C13.1942 42.8985 12.9363 42.4358 12.9363 41.9376V31.8751C12.9363 31.0812 13.5799 30.4376 14.3738 30.4376Z" fill="#020A13"/>
<path fill-rule="evenodd" clip-rule="evenodd" d="M22.9988 11.7501C23.7927 11.7501 24.4363 12.3937 24.4363 13.1876V14.6251C24.4363 15.419 23.7927 16.0626 22.9988 16.0626C22.2049 16.0626 21.5613 15.419 21.5613 14.6251V13.1876C21.5613 12.3937 22.2049 11.7501 22.9988 11.7501Z" fill="#020A13"/>
<path fill-rule="evenodd" clip-rule="evenodd" d="M22.9988 21.8126C23.7927 21.8126 24.4363 22.4562 24.4363 23.2501V24.6876C24.4363 25.4815 23.7927 26.1251 22.9988 26.1251C22.2049 26.1251 21.5613 25.4815 21.5613 24.6876V23.2501C21.5613 22.4562 22.2049 21.8126 22.9988 21.8126Z" fill="#020A13"/>
<path fill-rule="evenodd" clip-rule="evenodd" d="M18.6863 16.7813C18.6863 14.8374 20.3361 13.1876 22.28 13.1876H24.4363C25.2302 13.1876 25.8738 13.8312 25.8738 14.6251C25.8738 15.419 25.2302 16.0626 24.4363 16.0626H22.28C21.9239 16.0626 21.5613 16.4252 21.5613 16.7813C21.5613 17.1374 21.9239 17.5001 22.28 17.5001H23.7175C25.6614 17.5001 27.3113 19.1499 27.3113 21.0938C27.3113 23.0377 25.6614 24.6876 23.7175 24.6876H21.5613C20.7674 24.6876 20.1238 24.044 20.1238 23.2501C20.1238 22.4562 20.7674 21.8126 21.5613 21.8126H23.7175C24.0736 21.8126 24.4363 21.4499 24.4363 21.0938C24.4363 20.7377 24.0736 20.3751 23.7175 20.3751H22.28C20.3361 20.3751 18.6863 18.7252 18.6863 16.7813Z" fill="#020A13"/>
</svg>
